<svg width="30" height="30" viewBox="0 0 30 30" fill="none" xmlns="http://www.w3.org/2000/svg">
<rect width="30" height="30" rx="15" fill="#4A69A9"/>
<path d="M15 7.125C17.4459 7.125 18.669 7.12492 19.6338 7.52441C20.9202 8.05726 21.9427 9.07981 22.4756 10.3662C22.8751 11.331 22.875 12.5541 22.875 15C22.875 17.4459 22.8751 18.669 22.4756 19.6338C21.9427 20.9202 20.9202 21.9427 19.6338 22.4756C18.669 22.8751 17.4459 22.875 15 22.875H12.375C9.90013 22.875 8.6624 22.8753 7.89355 22.1064C7.12471 21.3376 7.125 20.0999 7.125 17.625V15C7.125 12.5541 7.12492 11.331 7.52441 10.3662C8.05726 9.07981 9.07981 8.05726 10.3662 7.52441C11.331 7.12492 12.5541 7.125 15 7.125ZM12.375 15.75C11.8227 15.75 11.375 16.1977 11.375 16.75C11.3752 17.3021 11.8228 17.75 12.375 17.75H15C15.5522 17.75 15.9998 17.3021 16 16.75C16 16.1977 15.5523 15.75 15 15.75H12.375ZM12.375 12.25C11.8227 12.25 11.375 12.6977 11.375 13.25C11.3752 13.8021 11.8228 14.25 12.375 14.25H17.625C18.1772 14.25 18.6248 13.8021 18.625 13.25C18.625 12.6977 18.1773 12.25 17.625 12.25H12.375Z" fill="#EEF1F8"/>
</svg>
